<svg xmlns="http://www.w3.org/2000/svg" xmlns:xlink="http://www.w3.org/1999/xlink" viewBox="0 0 20 20"><g fill="none"><path d="M2 4a2 2 0 0 1 2-2h6a2 2 0 0 1 2 2v1h4a2 2 0 0 1 2 2v10a1 1 0 0 1-1 1H3a1 1 0 0 1-1-1V4zm10 13h2v-2h-2v2zm3 0h2V7a1 1 0 0 0-1-1h-6a1 1 0 0 0-1 1v10h2v-2a1 1 0 0 1 1-1h2a1 1 0 0 1 1 1v2zM11 4a1 1 0 0 0-1-1H4a1 1 0 0 0-1 1v13h5V7a2 2 0 0 1 2-2h1V4zm1 4.75a.75.75 0 1 1-1.5 0a.75.75 0 0 1 1.5 0zm-6.75.75a.75.75 0 1 0 0-1.5a.75.75 0 0 0 0 1.5zM6 5.75a.75.75 0 1 1-1.5 0a.75.75 0 0 1 1.5 0zm5.25 6.75a.75.75 0 1 0 0-1.5a.75.75 0 0 0 0 1.5zM6 14.75a.75.75 0 1 1-1.5 0a.75.75 0 0 1 1.5 0zm-.75-2.25a.75.75 0 1 0 0-1.5a.75.75 0 0 0 0 1.5zM15.5 8.75a.75.75 0 1 1-1.5 0a.75.75 0 0 1 1.5 0zm-.75 3.75a.75.75 0 1 0 0-1.5a.75.75 0 0 0 0 1.5z" fill="currentColor"></path></g></svg>